<svg xmlns:dc="http://purl.org/dc/elements/1.1/" xmlns:cc="http://creativecommons.org/ns#" xmlns:rdf="http://www.w3.org/1999/02/22-rdf-syntax-ns#" xmlns:svg="http://www.w3.org/2000/svg" xmlns="http://www.w3.org/2000/svg" xmlns:sodipodi="http://sodipodi.sourceforge.net/DTD/sodipodi-0.dtd" xmlns:inkscape="http://www.inkscape.org/namespaces/inkscape" version="1.0" width="320" height="320" viewBox="-3 -3 246 246" preserveAspectRatio="xMidYMid meet" id="svg3721" sodipodi:docname="X.svg" inkscape:version="0.92.4 (5da689c313, 2019-01-14)"><g id="deeditor_bgCarrier" stroke-width="0">
  <rect id="dee_c_e" x="-3" y="-3" width="246" height="246" rx="38.4" fill="#ffffff" strokewidth="0"/>
</g>
  <g transform="matrix(0.06381641,0,0,-0.06388909,-68.276338,240.12925)" id="g3719" style="fill:#212178;stroke:none;stroke-width:1.56610382">
    <path d="m 2695,3740 c -73,-11 -221,-58 -239,-75 -11,-11 -13,-22 -7,-38 20,-51 71,-226 71,-245 0,-15 -10,-24 -37,-32 -21,-7 -52,-21 -69,-31 -17,-11 -39,-19 -48,-19 -10,0 -43,-12 -74,-26 -99,-46 -95,-45 -114,-8 -17,33 -17,34 6,49 27,18 117,67 168,92 49,23 49,48 2,142 -32,64 -38,71 -65,71 -37,0 -266,-112 -332,-163 -27,-20 -54,-37 -61,-37 -18,0 -86,-73 -86,-93 0,-10 13,-32 30,-50 16,-18 30,-36 30,-42 0,-5 23,-32 51,-60 81,-79 82,-75 -36,-190 -56,-55 -112,-113 -123,-128 l -21,-28 -33,23 c -18,13 -35,24 -37,25 -6,4 54,78 114,141 27,30 53,60 57,67 10,16 -117,155 -141,155 -19,0 -124,-105 -201,-202 -29,-37 -59,-69 -66,-72 -8,-3 -14,-13 -14,-22 0,-9 -15,-35 -33,-58 -55,-68 -70,-126 -33,-126 7,0 31,-13 53,-29 22,-16 74,-45 116,-65 42,-21 77,-43 77,-49 0,-7 -14,-39 -30,-72 -16,-33 -30,-68 -30,-78 0,-15 -63,-159 -76,-175 -1,-2 -19,2 -38,9 -25,9 -35,18 -32,29 3,8 12,44 21,79 9,36 26,83 37,104 l 20,40 -29,23 c -39,33 -127,74 -158,74 -29,0 -61,-44 -71,-100 -4,-19 -15,-57 -25,-85 -28,-80 -79,-294 -79,-336 0,-53 -8,-50 188,-70 l 122,-12 v -178 c 0,-98 -3,-180 -7,-182 -5,-2 -25,-2 -45,0 l -38,5 v 67 c -1,36 -6,93 -13,126 l -13,60 -93,3 c -60,2 -98,-1 -107,-9 -39,-33 9,-456 61,-535 15,-23 21,-26 58,-20 23,4 76,17 117,30 41,13 90,27 108,30 31,5 33,4 62,-61 17,-36 30,-72 30,-81 0,-8 16,-49 35,-92 19,-43 35,-82 35,-87 0,-5 -16,-17 -35,-26 -34,-16 -34,-16 -53,11 -10,15 -38,69 -63,120 -42,89 -45,92 -73,87 -15,-3 -58,-20 -95,-37 -66,-33 -66,-33 -64,-73 2,-46 116,-278 164,-332 16,-19 29,-40 29,-48 0,-19 71,-85 93,-85 10,0 30,11 45,25 15,14 31,25 37,25 5,0 30,18 55,40 25,22 60,50 79,61 l 34,20 81,-83 c 44,-46 98,-102 118,-125 37,-41 37,-42 23,-77 -9,-20 -18,-36 -21,-36 -4,0 -43,33 -88,73 -112,102 -119,105 -163,71 -67,-51 -103,-92 -103,-117 0,-31 68,-104 173,-186 44,-34 86,-68 94,-76 8,-8 20,-15 27,-15 7,0 32,-14 55,-30 68,-50 121,-61 121,-25 0,8 11,27 26,44 30,37 79,126 88,164 3,15 10,27 15,27 5,0 39,-13 76,-30 37,-16 74,-30 83,-30 9,0 34,-9 56,-19 23,-10 58,-27 79,-37 37,-16 38,-19 32,-53 -4,-20 -8,-38 -10,-40 -8,-7 -201,55 -222,72 -28,21 -111,-109 -112,-175 -1,-33 23,-51 99,-72 30,-9 93,-27 140,-41 99,-30 253,-65 291,-65 15,0 29,6 32,14 3,8 13,76 22,152 9,77 18,140 19,141 1,1 85,3 186,4 l 185,2 v -49 -49 l -70,-3 c -38,-2 -101,-6 -140,-10 l -70,-7 V 125 25 l 108,-3 c 63,-1 151,4 210,13 56,8 137,21 180,27 113,16 112,11 41,225 -33,99 -32,111 14,129 20,8 49,21 64,29 14,8 34,15 43,15 10,0 51,16 92,35 41,19 80,35 87,35 7,0 20,-16 29,-35 l 17,-35 -81,-42 c -45,-24 -99,-52 -121,-63 -35,-18 -38,-23 -33,-50 3,-16 20,-59 38,-95 31,-62 35,-65 68,-64 37,1 282,117 319,152 11,10 33,25 48,32 32,16 112,90 112,104 0,5 -16,28 -35,52 -19,23 -35,45 -35,48 0,2 -22,28 -50,56 -68,70 -67,91 8,157 31,28 82,80 112,116 30,36 60,66 65,66 6,0 23,-11 38,-25 33,-29 39,-17 -71,-142 l -73,-83 23,-32 c 42,-59 107,-117 131,-117 26,0 107,79 179,175 25,33 55,69 67,79 11,11 21,24 21,30 0,6 22,44 49,84 47,70 55,102 26,102 -7,0 -36,16 -65,36 -29,20 -82,49 -118,65 -37,17 -68,32 -70,34 -2,1 10,33 27,69 17,36 31,73 31,83 0,10 10,38 23,63 12,25 28,62 36,83 8,20 20,37 27,37 21,0 64,-22 64,-33 0,-16 -30,-116 -53,-176 l -21,-54 30,-24 c 37,-32 128,-73 158,-73 25,0 50,40 67,105 4,16 26,91 48,165 64,218 72,290 35,304 -9,3 -79,12 -155,18 l -139,12 2,180 3,180 35,1 c 60,2 60,2 60,-114 0,-161 -7,-152 114,-149 l 101,3 3,148 c 3,170 -15,305 -50,375 -27,56 -27,55 -173,12 -136,-40 -146,-40 -161,-10 -42,83 -54,112 -54,126 0,9 -16,52 -35,97 -19,44 -34,81 -32,81 1,1 17,9 35,20 34,18 34,18 50,-5 9,-13 26,-44 37,-70 11,-25 25,-52 31,-60 6,-8 17,-31 25,-52 12,-35 16,-37 44,-31 40,8 148,59 163,76 8,11 9,25 1,54 -15,56 -104,230 -150,291 -22,29 -43,61 -46,70 -4,10 -26,37 -49,61 l -41,44 -39,-36 c -21,-20 -44,-36 -51,-36 -6,0 -26,-16 -45,-36 -37,-40 -88,-74 -110,-74 -12,0 -104,89 -231,222 -18,19 -17,25 21,87 1,2 21,-11 45,-30 23,-18 48,-38 55,-44 7,-5 29,-27 49,-47 48,-51 67,-55 106,-25 59,45 96,86 103,113 6,22 -2,34 -53,82 -32,32 -93,86 -136,120 -42,35 -77,68 -77,73 0,5 -6,9 -12,9 -7,0 -36,16 -63,35 -28,19 -65,38 -82,41 -28,6 -34,3 -52,-27 -11,-19 -26,-41 -34,-49 -16,-17 -71,-120 -72,-135 0,-5 -6,-19 -12,-30 -11,-19 -12,-19 -65,4 -29,13 -71,28 -93,34 -22,5 -53,16 -70,23 -16,7 -50,20 -74,30 -43,17 -43,17 -37,58 4,22 9,42 12,45 5,5 160,-39 211,-60 29,-12 34,-11 54,6 30,27 69,113 69,153 0,26 -7,36 -32,52 -18,11 -44,23 -58,26 -14,3 -59,16 -100,29 -41,13 -104,31 -140,40 -36,9 -82,22 -103,30 -20,8 -53,15 -72,15 -29,0 -37,-5 -46,-27 -12,-32 -35,-152 -44,-235 l -6,-58 h -179 c -176,0 -178,0 -184,23 -3,12 -6,32 -6,43 0,24 26,30 188,41 l 93,6 -3,106 -3,106 -145,1 c -80,1 -167,-2 -195,-6 z m 263,-107 -3,-48 -60,-3 c -90,-4 -185,-19 -201,-33 -29,-24 -10,-172 26,-194 9,-6 80,-6 325,-1 17,0 53,-3 82,-7 l 52,-8 10,38 c 6,21 15,65 21,98 15,90 30,169 35,181 2,8 20,6 57,-7 29,-10 64,-18 78,-19 39,0 260,-74 260,-86 0,-6 -7,-28 -15,-47 -14,-34 -16,-35 -47,-26 -19,5 -60,19 -94,32 -52,21 -94,25 -155,18 -6,-1 -12,-35 -26,-142 -5,-41 -2,-48 18,-63 13,-9 33,-16 44,-16 31,0 93,-24 229,-89 l 125,-60 29,29 c 30,30 92,121 92,135 0,5 14,30 31,56 35,56 38,56 123,-11 32,-25 80,-61 106,-80 27,-20 67,-56 89,-81 l 40,-46 -36,-32 -35,-31 -67,62 c -37,35 -84,72 -104,83 l -38,20 -55,-57 c -82,-86 -83,-84 102,-276 86,-89 161,-162 168,-162 12,0 104,64 116,81 3,3 23,15 45,27 22,11 51,32 64,46 31,33 37,33 55,-1 8,-16 24,-39 35,-52 12,-13 21,-32 21,-41 0,-10 10,-32 23,-51 13,-19 34,-53 47,-76 13,-24 27,-43 31,-43 4,0 9,-10 12,-22 2,-13 8,-30 11,-39 5,-12 -3,-22 -29,-38 -20,-11 -43,-21 -50,-21 -17,0 -45,50 -45,79 0,29 -70,141 -96,153 -28,13 -74,-9 -131,-62 -40,-38 -41,-41 -31,-72 6,-18 14,-37 19,-43 4,-5 17,-39 29,-75 12,-36 28,-72 36,-81 8,-8 14,-18 14,-21 0,-4 10,-28 22,-55 12,-26 20,-52 20,-56 -4,-14 28,-67 41,-67 10,0 103,23 247,60 19,5 38,6 42,2 11,-11 50,-326 46,-370 -3,-37 -3,-37 -48,-37 h -45 l -6,91 c -9,129 -19,174 -36,181 -17,7 -132,-13 -177,-29 -25,-10 -28,-15 -23,-47 3,-20 9,-123 13,-229 7,-185 8,-193 28,-197 12,-2 79,-13 150,-24 71,-12 131,-23 134,-25 2,-3 -5,-30 -17,-61 -12,-31 -21,-66 -21,-79 0,-27 -67,-243 -78,-249 -4,-2 -24,-2 -44,0 -48,6 -49,24 -8,128 18,45 30,94 30,121 0,43 -2,46 -37,61 -21,8 -65,18 -98,20 l -61,5 -16,-38 c -8,-22 -23,-66 -33,-99 -10,-33 -23,-69 -30,-80 -7,-11 -18,-38 -25,-60 -7,-22 -16,-44 -20,-50 -4,-5 -10,-26 -13,-45 -3,-19 -8,-46 -12,-60 -5,-22 2,-30 66,-72 39,-27 75,-48 80,-48 5,0 27,-11 49,-25 44,-28 52,-56 22,-77 -10,-7 -53,-59 -96,-115 -43,-56 -84,-107 -92,-114 -8,-6 -14,-18 -14,-26 0,-26 -28,-24 -69,5 l -40,29 52,59 c 56,62 117,146 117,161 0,18 -107,101 -138,108 -31,6 -37,1 -192,-154 -88,-88 -160,-165 -160,-171 0,-15 52,-90 79,-114 11,-11 21,-27 21,-36 0,-9 16,-33 35,-55 20,-21 34,-41 33,-45 -7,-18 -101,-90 -117,-90 -10,0 -29,-8 -42,-18 -46,-35 -160,-92 -185,-92 -25,0 -33,13 -48,72 -6,25 -4,27 40,34 49,7 160,67 175,95 15,29 -4,86 -46,139 -22,27 -44,50 -50,50 -5,0 -29,-11 -52,-24 -54,-31 -187,-87 -278,-117 -38,-13 -76,-27 -82,-32 -21,-16 -15,-79 17,-170 37,-107 39,-145 8,-151 -53,-12 -229,-36 -305,-42 l -83,-7 v 45 c 0,55 3,56 154,68 54,4 103,13 108,18 17,17 6,169 -14,188 -14,14 -47,16 -247,18 l -231,1 -9,-50 c -6,-27 -19,-97 -30,-154 -11,-57 -22,-106 -25,-109 -3,-3 -30,2 -58,11 -29,8 -78,21 -108,28 -58,12 -218,63 -226,72 -3,3 2,19 10,36 9,17 16,34 15,38 -1,4 -1,11 0,15 0,3 47,-11 103,-33 101,-38 171,-49 183,-29 5,9 34,176 35,202 0,4 -17,10 -37,13 -89,14 -138,33 -339,133 l -51,26 -34,-38 c -19,-21 -57,-80 -85,-130 -28,-50 -58,-92 -67,-94 -32,-7 -317,221 -317,254 0,6 14,23 30,38 l 31,27 54,-48 c 30,-26 55,-50 55,-55 0,-4 5,-8 11,-8 6,0 25,-11 43,-25 18,-14 37,-25 42,-25 18,0 97,85 111,118 12,29 12,37 -1,55 -25,38 -305,317 -316,317 -14,0 -90,-52 -126,-85 -15,-14 -33,-25 -40,-25 -8,0 -32,-16 -54,-36 -22,-20 -42,-35 -43,-33 -1,2 -19,29 -40,60 -20,30 -37,62 -37,69 0,8 -11,30 -24,49 -52,78 -81,127 -92,159 -11,31 -10,33 18,48 16,8 41,14 56,12 23,-3 29,-10 38,-49 6,-25 29,-73 50,-107 35,-56 42,-62 72,-62 18,0 46,7 61,14 29,15 91,80 91,95 0,4 -27,67 -59,140 -32,72 -67,155 -76,183 -33,100 -32,98 -69,98 -19,0 -74,-13 -123,-29 -48,-16 -102,-31 -119,-34 -35,-7 -30,-18 -50,113 -3,19 -9,51 -15,71 -5,20 -11,79 -14,132 -4,95 -4,97 19,103 13,3 37,4 52,2 l 29,-3 5,-120 c 4,-69 11,-130 19,-143 11,-22 17,-23 64,-17 74,9 123,23 134,38 5,7 7,111 5,237 l -4,226 -126,18 c -70,10 -139,20 -154,23 -32,6 -36,26 -13,69 8,16 15,43 15,60 0,28 20,101 40,149 5,11 16,44 25,73 9,28 20,52 24,52 8,0 73,-21 79,-25 1,-1 -13,-51 -33,-111 -19,-60 -35,-116 -35,-125 0,-36 105,-89 176,-89 27,0 54,35 54,70 0,34 23,100 65,187 19,39 35,78 35,85 0,8 4,18 9,23 4,6 13,24 19,42 10,29 8,35 -16,60 -28,30 -92,72 -179,118 -56,30 -64,44 -37,66 9,8 48,57 87,109 65,88 145,180 157,180 3,0 20,-14 39,-31 l 33,-31 -34,-36 c -64,-67 -128,-154 -128,-171 0,-24 94,-107 127,-114 35,-7 82,32 243,200 l 120,126 -18,29 c -9,17 -31,46 -48,66 -17,21 -38,51 -47,67 -8,17 -24,39 -36,49 -12,11 -21,24 -21,31 0,21 76,86 113,96 20,5 42,15 49,22 24,23 147,86 174,89 24,3 29,-2 42,-40 17,-51 11,-60 -44,-69 -40,-7 -139,-62 -162,-92 -19,-24 -5,-69 41,-129 22,-29 43,-55 47,-57 4,-2 31,8 61,23 113,58 280,126 332,136 35,6 37,9 37,44 -1,38 -15,105 -45,205 -9,31 -15,63 -13,69 5,14 269,55 361,57 l 58,1 z" id="path3715" style="fill:#212178;stroke-width:1.56610382" inkscape:connector-curvature="0"/>
    <path d="m 2840,3090 c -30,-4 -73,-17 -95,-29 -22,-11 -44,-21 -50,-21 -6,0 -35,-16 -65,-35 -30,-19 -62,-35 -71,-35 -17,0 -96,-48 -152,-91 -15,-12 -30,-19 -33,-16 -3,3 -42,-17 -87,-44 -45,-27 -93,-52 -107,-55 -14,-3 -53,-16 -87,-30 -34,-13 -91,-26 -127,-30 l -66,-7 V 1840 983 l 58,-6 c 71,-8 205,-43 246,-64 17,-9 47,-20 66,-23 19,-4 43,-11 53,-15 16,-7 17,13 17,339 v 346 h 90 90 l 2,-387 3,-387 80,-34 c 44,-18 94,-40 110,-47 69,-30 124,-38 275,-37 130,0 164,3 210,20 104,39 185,74 201,88 8,8 24,14 35,14 11,0 63,22 116,50 53,27 104,50 112,50 9,0 33,8 54,19 48,24 174,59 247,69 l 56,7 v 855 855 l -61,8 c -34,4 -80,15 -103,23 -23,9 -60,21 -82,28 -35,10 -66,25 -185,91 -14,7 -36,18 -50,24 -14,7 -52,30 -85,51 -33,22 -67,43 -75,46 -8,3 -63,30 -122,60 -140,70 -246,87 -418,64 z m 118,-612 2,-588 h 30 30 V 1290 690 h -29 c -22,0 -30,6 -34,22 -3,13 -5,280 -4,595 l 2,572 -25,3 -25,3 -3,580 c -1,319 0,586 3,593 3,7 15,12 27,10 l 23,-3 z m -120,-10 -3,-583 h -30 -30 l -3,555 c -1,305 0,565 3,577 5,20 19,29 53,32 10,1 12,-118 10,-581 z m -128,-22 c 0,-363 -3,-557 -10,-561 -6,-3 -19,-3 -30,0 -19,6 -20,15 -20,165 v 159 l -30,-1 -30,-1 v -158 c 0,-95 -4,-160 -10,-164 -6,-3 -19,-3 -30,0 -20,6 -20,16 -20,520 v 514 l 83,40 c 45,22 85,40 90,41 4,0 7,-249 7,-554 z m -242,-69 -3,-492 h -25 -25 l -3,479 c -1,292 2,483 7,490 6,6 19,12 31,13 20,2 20,2 18,-490 z m 1015,464 c 36,-14 87,-92 87,-134 0,-36 -54,-119 -85,-131 -29,-11 -95,-6 -125,9 -98,51 -99,197 -1,250 30,16 89,19 124,6 z M 2338,1888 c -7,-4 -44,-7 -83,-6 l -70,3 -3,417 c -2,375 -1,418 14,433 9,9 20,13 25,8 5,-5 10,-71 11,-148 l 3,-140 33,-3 32,-3 v 165 c 0,160 1,165 23,181 l 22,15 3,-457 c 2,-359 -1,-458 -10,-465 z m -230,400 c -3,-395 -3,-403 -23,-403 -20,0 -20,8 -23,390 -1,214 0,396 3,402 2,7 14,13 25,13 20,0 20,-3 18,-402 z m -120,-15 -3,-388 -22,-3 -23,-3 v 390 391 h 25 25 z m 1520,-31 2,-293 -87,3 -88,3 -1,285 c 0,157 0,287 2,290 1,3 40,5 86,5 h 83 z m -360,-943 2,-587 -22,-6 c -13,-3 -26,-6 -30,-6 -10,0 -10,1174 -1,1184 4,4 16,6 28,4 20,-3 20,-8 23,-589 z m 122,22 V 752 l -22,-6 c -13,-3 -26,-6 -30,-6 -10,0 -11,1134 -1,1143 3,4 17,7 30,7 h 23 z m 120,404 v -165 h 35 35 l 2,163 c 3,159 3,162 26,165 l 22,3 v -215 -216 h 35 35 l 2,213 c 3,204 4,212 23,212 20,0 20,-8 23,-485 2,-447 1,-486 -15,-497 -9,-7 -20,-13 -25,-13 -4,0 -8,61 -8,135 v 135 h -35 -35 V 1012 863 l -25,-11 c -14,-7 -28,-12 -30,-12 -3,0 -5,55 -5,121 0,121 0,121 -22,115 -13,-3 -27,-6 -33,-6 -6,0 -10,-53 -10,-137 V 795 l -27,-3 -27,-3 -1,544 c 0,299 3,546 7,550 3,4 17,7 30,7 h 23 z m 358,-294 c 2,-447 0,-481 -29,-481 -5,0 -9,207 -9,471 0,443 1,470 18,467 16,-3 17,-34 20,-457 z m 110,12 c -2,-346 -6,-447 -15,-451 -10,-3 -13,91 -13,447 0,396 2,451 15,451 13,0 15,-54 13,-447 z m 122,2 c 0,-438 0,-445 -20,-445 -20,0 -20,7 -20,445 0,438 0,445 20,445 20,0 20,-7 20,-445 z m -1090,280 v -85 h -455 c -357,0 -455,3 -455,13 -1,25 -2,142 -1,150 1,4 206,7 456,7 h 455 z" id="path3717" style="fill:#212178;stroke-width:1.56610382" inkscape:connector-curvature="0"/>
  </g>
</svg>