<svg xmlns="http://www.w3.org/2000/svg" xmlns:xlink="http://www.w3.org/1999/xlink" style="shape-rendering:geometricPrecision;text-rendering:geometricPrecision;image-rendering:optimizeQuality;fill-rule:evenodd;clip-rule:evenodd" width="163.839" height="163.839" version="1.1" viewBox="0 0 480 480" xml:space="preserve"><defs><style type="text/css">.fil2{fill:#ce5400}.fil0{fill:#fe6700}.fil1{fill:#fff}</style></defs><g id="Layer_x0020_1"><g id="_444242000"><rect width="480" height="480" class="fil0" rx="52" ry="52"/><path d="M386 250c0,-25 5,-46 -23,-46 -5,0 -20,1 -23,-2 -5,-6 -7,-8 -8,-17 -5,-79 -61,-91 -131,-91 -78,0 -102,36 -104,106 -2,36 -9,98 5,130 9,20 33,46 56,50 14,8 107,5 134,5 80,0 94,-69 94,-135zm-89 58c6,-1 9,-5 9,-5 8,-10 3,-23 -7,-27 -5,-2 -114,-4 -122,2 -11,7 -10,21 0,28 9,8 95,4 111,4 0,0 2,0 9,-2zm-121 -108c-6,-6 -8,-11 -6,-19 2,-8 10,-12 19,-12 14,0 55,-5 64,6 3,4 6,10 3,19 -6,16 -73,13 -80,6z" class="fil1"/><path d="M363 204c28,0 23,21 23,46 0,66 -14,135 -94,135 -27,0 -120,3 -134,-5 -12,-2 -24,-10 -34,-20l119 120 185 0 52 -52 0 -134 -167 -167c11,14 18,32 19,58 1,9 3,11 8,17 3,3 18,2 23,2z" class="fil2"/><path d="M299 276c-5,-2 -114,-4 -122,2 -11,7 -10,21 0,28 9,8 95,4 111,4 0,0 2,0 9,-2 6,-1 9,-5 9,-5 8,-10 3,-23 -7,-27z" class="fil2"/><path d="M176 200c7,7 74,10 80,-6 3,-9 0,-15 -3,-19 -9,-11 -50,-6 -64,-6 -9,0 -17,4 -19,12 -2,8 0,13 6,19z" class="fil2"/></g></g></svg>