<svg xmlns="http://www.w3.org/2000/svg" xmlns:xlink="http://www.w3.org/1999/xlink" style="shape-rendering:geometricPrecision;text-rendering:geometricPrecision;image-rendering:optimizeQuality;fill-rule:evenodd;clip-rule:evenodd" width="666.667" height="666.667" version="1.1" viewBox="0 0 17639 17639" xml:space="preserve"><defs><style type="text/css">.fil1{fill:#2e001e}.fil3{fill:#fe31c0}.fil0{fill:#ff2bc2}.fil2{fill:#ff3bc1}</style></defs><g id="Layer_x0020_1"><rect width="15476" height="15381" x="1082" y="1129" class="fil0"/><rect width="12882" height="12803" x="2379" y="2418" class="fil1"/><path d="M4075 5369c51,111 127,247 155,304 78,156 154,301 231,455l1255 2498c37,73 106,155 71,234l-1761 3362c-42,83 -135,180 34,180l1044 0c148,0 150,-78 244,-278l1195 -2504c82,72 1058,2191 1294,2675 41,84 51,107 171,107 169,0 1098,20 1187,-18 19,-98 -150,-368 -200,-463l-464 -890c-367,-706 -787,-1563 -1159,-2234 -76,-137 -47,-130 124,-447 83,-154 152,-295 235,-449 76,-143 153,-290 229,-439l698 -1343c65,-123 374,-672 426,-855 17,-61 -84,-57 -156,-57l-922 1c-5,0 -10,0 -15,0 -101,0 -116,20 -152,93l-906 1933c-44,98 -285,663 -329,698 -95,-235 -211,-462 -314,-696l-662 -1394c-60,-114 -106,-230 -163,-343 -31,-62 -58,-114 -85,-175 -38,-85 -33,-116 -146,-116l-1057 1c-157,1 -173,6 -102,160z" class="fil2"/><path d="M10646 9825c0,-436 45,-850 289,-1216 51,-78 137,-193 195,-246 298,-269 797,-471 1329,-298l2 3312c-1041,300 -1815,-342 -1815,-1552zm1815 -2814l-424 -8c-813,0 -1493,392 -1862,780 -380,400 -736,1118 -736,1911 0,868 160,1500 629,2050 332,391 978,748 1757,748 407,0 703,-22 1101,-129 194,-53 634,-196 750,-295 14,-74 -16,-288 -20,-383 -14,-394 -5,-920 -4,-1322l1 -5025c1,-100 6,-130 -99,-130l-995 0c-138,0 -98,85 -98,376l0 1427z" class="fil3"/></g></svg>