<svg xmlns="http://www.w3.org/2000/svg" viewBox="0 0 151.44 151.44"><g data-name="Layer 2"><g data-name="Colored icon"><g data-name="Android studio"><circle cx="75.75" cy="75.82" r="64.59" fill="#e8e8e8"/><circle cx="75.75" cy="75.82" r="64.59" fill="#e8e8e8"/><path fill="#38aa71" d="M83,57.64a1.76,1.76,0,1,1,1.81-1.76A1.79,1.79,0,0,1,83,57.64Zm-14.47,0a1.76,1.76,0,1,1,1.81-1.76,1.78,1.78,0,0,1-1.81,1.76Zm15.54-7,.67-1,.68-1,1.5-2.2a.58.58,0,0,0-.17-.81.6.6,0,0,0-.83.17l-2.29,3.34-.69,1a20.72,20.72,0,0,0-14.34,0l-.69-1-.68-1L65.6,45.78a.61.61,0,0,0-.84-.17.57.57,0,0,0-.16.81l1.5,2.2.67,1,.68,1c-5.12,2.32-8.58,6.71-8.58,11.74H92.62C92.62,57.3,89.16,52.91,84.05,50.59ZM59.13,64.68h-.26V90.49a3.77,3.77,0,0,0,3.82,3.71h2.76a3.24,3.24,0,0,0-.15,1v7.43a3.62,3.62,0,0,0,7.23,0V95.18a3.57,3.57,0,0,0-.14-1H79.1a3.57,3.57,0,0,0-.14,1v7.43a3.62,3.62,0,0,0,7.24,0V95.18a3.58,3.58,0,0,0-.15-1h2.76a3.76,3.76,0,0,0,3.81-3.71V64.68Zm-6.29,0a3.56,3.56,0,0,0-3.61,3.51V83.25a3.62,3.62,0,0,0,7.23,0V68.19A3.56,3.56,0,0,0,52.84,64.68Zm45.81,0A3.56,3.56,0,0,0,95,68.19V83.25a3.62,3.62,0,0,0,7.24,0V68.19A3.56,3.56,0,0,0,98.65,64.68Z"/></g></g></g></svg>