<svg xmlns="http://www.w3.org/2000/svg" enable-background="new 0 0 32 32" viewBox="0 0 32 32"><circle cx="16" cy="16" r="11" fill="#94C856"/><path fill="#6E6E6E" d="M16,28C9.383,28,4,22.617,4,16S9.383,4,16,4s12,5.383,12,12S22.617,28,16,28z M16,6C10.486,6,6,10.486,6,16s4.486,10,10,10s10-4.486,10-10S21.514,6,16,6z"/><path fill="#F2F2F2" d="M24.857,26.763l-3.12-5.2C23.135,20.121,24,18.161,24,16c0-0.552-0.448-1-1-1s-1,0.448-1,1c0,1.427-0.503,2.739-1.338,3.77L19,17l-2,1l1.936,3.227C18.067,21.717,17.067,22,16,22c-1.039,0-2.037-0.278-2.931-0.782L15,18l-2-1l-5.857,9.763C7.049,26.918,7,27.096,7,27.277v0.914c0,0.372,0.391,0.613,0.724,0.447L8.74,28.13c0.17-0.085,0.312-0.217,0.41-0.38l2.893-4.822C13.247,23.618,14.595,24,16,24c1.443,0,2.794-0.389,3.964-1.06l2.886,4.811c0.098,0.163,0.24,0.295,0.41,0.38l1.016,0.508C24.609,28.804,25,28.563,25,28.191v-0.914C25,27.096,24.951,26.918,24.857,26.763z"/><path fill="#6E6E6E" d="M19,11h-1V9c0-0.552-0.448-1-1-1h-2c-0.552,0-1,0.448-1,1v2h-1c-0.552,0-1,0.448-1,1v4c0,0.334,0.167,0.646,0.445,0.832l3,2C15.613,18.944,15.807,19,16,19s0.387-0.056,0.555-0.168l3-2C19.833,16.646,20,16.334,20,16v-4C20,11.448,19.552,11,19,11z M16,16c-1.105,0-2-0.895-2-2s0.895-2,2-2c1.105,0,2,0.895,2,2S17.105,16,16,16z"/></svg>