<svg xmlns="http://www.w3.org/2000/svg" enable-background="new 0 0 24 24" viewBox="0 0 24 24"><path d="M0.425,15.167c-0.008-0.028-0.01-0.057-0.017-0.085l-0.003,0.001L0.425,15.167z"/><rect width="24" height="24" fill="none"/><path fill="#4285F4" d="M8.008,12c0,2.2,1.789,3.99,3.988,3.99c2.199,0,3.988-1.79,3.988-3.99c0-2.2-1.79-3.99-3.988-3.99C9.797,8.009,8.008,9.799,8.008,12L8.008,12z"/><path fill="#3974D4" d="M11.996,8.009c-2.199,0-3.988,1.79-3.988,3.99s1.789,3.99,3.988,3.99c0.001,0,0.003,0,0.004,0V8.009C11.999,8.009,11.997,8.009,11.996,8.009L11.996,8.009z"/><path fill="#EA4335" d="M2.897,4.181C8.476-2.312,18.819-1.03,22.687,6.554c-1.452,0-3.342,0-5.14,0c-1.573,0-3.076,0-4.153,0c-0.094,0-0.186,0-0.276,0c-1.52-0.001-2.544-0.003-3.65,0.579C8.091,7.857,7.053,9.2,6.691,10.777L2.897,4.181L2.897,4.181z"/><path fill="#CC3A2E" d="M12,0h-0.075C8.631,0.012,5.316,1.366,2.897,4.181l3.793,6.597C7.053,9.2,8.091,7.857,9.467,7.132c0.812-0.427,1.58-0.54,2.532-0.569V0L12,0z"/><path fill="#34A853" d="M13.544,17.222c-2.239,0.666-4.858-0.072-6.293-2.549c-1.096-1.891-3.99-6.932-5.305-9.224C-2.661,12.51,1.31,22.132,9.673,23.775L13.544,17.222L13.544,17.222z"/><path fill="#2D9248" d="M1.946,5.449c-2.89,4.429-2.405,9.867,0.423,13.711l1.396,1.395l4.54-4.54c-0.395-0.371-0.751-0.818-1.054-1.341C6.155,12.783,3.261,7.741,1.946,5.449L1.946,5.449z"/><path fill="#FBBC05" d="M15.701,8.009c1.864,1.734,2.271,4.542,1.008,6.719c-0.952,1.64-3.988,6.766-5.461,9.248c8.617,0.531,14.9-7.914,12.062-15.967H15.701L15.701,8.009z"/><path fill="#DBA404" d="M16.047,15.859c-1.293,2.202-3.581,6.063-4.799,8.117C11.507,23.992,11.764,24,12.019,24c3.41,0,6.409-1.409,8.553-3.616L16.047,15.859L16.047,15.859z"/></svg>