<?xml version="1.0" encoding="UTF-8"?>
<svg version="1.1" xmlns="http://www.w3.org/2000/svg" width="200" height="200">
<path d="M0 0 C3.96423846 1.5204455 7.39446654 3.77622786 11 6 C13.21841797 7.23504473 15.45144091 8.44104371 17.68554688 9.64746094 C27.62452624 15.02040646 37.39303316 20.67429048 47.12963867 26.40429688 C48.09748291 26.97341797 49.06532715 27.54253906 50.0625 28.12890625 C50.91972656 28.63494385 51.77695313 29.14098145 52.66015625 29.66235352 C54.74314613 30.85316127 56.84187839 31.95302443 59 33 C59 33.66 59 34.32 59 35 C59.66 35 60.32 35 61 35 C64.12056181 39.00207341 64.38279842 42.18694236 64.40405273 47.17358398 C64.41091599 47.87668701 64.41777924 48.57979004 64.42485046 49.30419922 C64.44308683 51.61837202 64.43928568 53.93186481 64.43359375 56.24609375 C64.43815719 57.86125406 64.44346325 59.47641243 64.44947815 61.09156799 C64.45840309 64.47331643 64.45599338 67.85482863 64.44604492 71.23657227 C64.43455763 75.56209558 64.45476553 79.88680223 64.48396206 84.21221828 C64.50234246 87.5469121 64.50202795 90.88141088 64.49632454 94.21614265 C64.49617154 95.81048795 64.50219828 97.40484665 64.51461601 98.9991436 C64.52955941 101.23228477 64.51882651 103.46392601 64.50170898 105.69702148 C64.50154282 106.96545395 64.50137665 108.23388641 64.50120544 109.54075623 C63.81015298 114.3102953 61.75997418 117.4756709 58.1328125 120.6171875 C57.47023437 121.03226562 56.80765625 121.44734375 56.125 121.875 C55.32964844 122.37515625 54.53429687 122.8753125 53.71484375 123.390625 C50.14208769 125.50857536 46.54329107 127.57788628 42.92602539 129.61889648 C37.58520396 132.63817154 32.32090207 135.77728297 27.0625 138.9375 C26.20736816 139.44651855 25.35223633 139.95553711 24.47119141 140.47998047 C20.53608336 142.82995838 16.64508283 145.20788406 12.84375 147.76953125 C12.20042725 148.19049072 11.55710449 148.6114502 10.89428711 149.04516602 C9.19839175 150.16061898 7.52205847 151.30566102 5.84765625 152.453125 C0.54084809 155.1136088 -5.25840483 154.88579201 -11 154 C-15.381177 152.35149284 -19.2178878 150.08828755 -23.1875 147.625 C-25.37475761 146.33292292 -27.56225918 145.04125873 -29.75 143.75 C-31.34134766 142.7909375 -31.34134766 142.7909375 -32.96484375 141.8125 C-37.15037306 139.31303333 -41.41131221 136.96457984 -45.6875 134.625 C-47.1126326 133.83320621 -48.53713247 133.0402723 -49.9609375 132.24609375 C-52.6481834 130.74895075 -55.34172382 129.2640238 -58.0390625 127.78515625 C-59.29711171 127.08636349 -60.55493666 126.38716677 -61.8125 125.6875 C-62.89144531 125.09324219 -63.97039063 124.49898438 -65.08203125 123.88671875 C-68.73171653 121.52688208 -72.0280225 118.943955 -74 115 C-74.11278285 112.6937339 -74.15941007 110.38415045 -74.17700195 108.07519531 C-74.18357315 107.36277679 -74.19014435 106.65035828 -74.19691467 105.91635132 C-74.21665896 103.55360817 -74.22831384 101.19092867 -74.23828125 98.828125 C-74.24235678 98.02103844 -74.2464323 97.21395187 -74.25063133 96.38240814 C-74.27149871 92.10910802 -74.28579648 87.83584006 -74.29516602 83.5625 C-74.30622096 79.15289502 -74.34060797 74.74379599 -74.38033772 70.33436966 C-74.40651335 66.94052202 -74.41485876 63.54679462 -74.41844749 60.15285492 C-74.42331247 58.52778463 -74.434924 56.90271967 -74.45348549 55.27774811 C-74.47789415 52.99888858 -74.47690929 50.72133367 -74.4699707 48.44238281 C-74.47583694 47.14713684 -74.48170319 45.85189087 -74.48774719 44.51739502 C-73.79588057 39.52799019 -71.62831061 36.41892177 -67.86791992 33.14208984 C-61.18108738 28.666413 -54.31330472 24.58953416 -47.3125 20.625 C-45.00984607 19.30959209 -42.70775959 17.99319033 -40.40625 16.67578125 C-39.30539063 16.04623535 -38.20453125 15.41668945 -37.0703125 14.76806641 C-32.020439 11.86005242 -27.0315839 8.85630304 -22.05078125 5.83203125 C-21.04402344 5.22746094 -20.03726563 4.62289063 -19 4 C-18.13785889 3.45472656 -18.13785889 3.45472656 -17.25830078 2.8984375 C-11.38518623 -0.69610688 -6.7157367 -1.08235858 0 0 Z " fill="#3BD680" transform="translate(105,23)"/>
<path d="M0 0 C1.46776944 2.93553887 1.15168161 5.55537702 1.17700195 8.83300781 C1.18357315 9.53567276 1.19014435 10.23833771 1.19691467 10.96229553 C1.21665808 13.29257308 1.22831368 15.62278609 1.23828125 17.953125 C1.24235678 18.749179 1.2464323 19.545233 1.25063133 20.36540985 C1.27149841 24.58035524 1.28579627 28.79526802 1.29516602 33.01025391 C1.30622049 37.35932793 1.340607 41.7078889 1.38033772 46.05678177 C1.40651534 49.40430639 1.41485894 52.75170912 1.41844749 56.09932709 C1.42331201 57.70206917 1.43492225 59.30480586 1.45348549 60.90744781 C1.47789835 63.1551798 1.47690858 65.40158941 1.4699707 67.64941406 C1.47583694 68.92689514 1.48170319 70.20437622 1.48774719 71.52056885 C0.81637552 76.30991778 -1.22830475 79.46551918 -4.8671875 82.6171875 C-5.52976562 83.03226562 -6.19234375 83.44734375 -6.875 83.875 C-7.67035156 84.37515625 -8.46570313 84.8753125 -9.28515625 85.390625 C-12.85791231 87.50857536 -16.45670893 89.57788628 -20.07397461 91.61889648 C-25.41475721 94.63814959 -30.67991299 97.77597751 -35.9375 100.9375 C-36.78828125 101.44651855 -37.6390625 101.95553711 -38.515625 102.47998047 C-42.49541766 104.8661826 -46.45440887 107.27475224 -50.3671875 109.76953125 C-51.03758057 110.19049072 -51.70797363 110.6114502 -52.39868164 111.04516602 C-53.63011208 111.82040638 -54.85402926 112.60778132 -56.06811523 113.40991211 C-60.63941621 116.26522114 -62.0241087 116 -68 116 C-68 100.82 -68 85.64 -68 70 C-69.65 69.67 -71.3 69.34 -73 69 C-75.57128906 67.70898437 -75.57128906 67.70898437 -78.265625 66.09375 C-79.23757812 65.51496094 -80.20953125 64.93617187 -81.2109375 64.33984375 C-82.21382812 63.73269531 -83.21671875 63.12554687 -84.25 62.5 C-85.77753906 61.58927734 -85.77753906 61.58927734 -87.3359375 60.66015625 C-94.82075374 56.17924626 -94.82075374 56.17924626 -96 55 C-96.3148104 50.65672112 -96.35681289 46.3077038 -96.4050293 41.95458984 C-96.4265745 40.49178407 -96.46063762 39.02910602 -96.50756836 37.56689453 C-96.57473047 35.4554708 -96.6020505 33.34671757 -96.62109375 31.234375 C-96.6461499 29.96819336 -96.67120605 28.70201172 -96.69702148 27.39746094 C-95.75360822 22.79902346 -93.7994029 21.61437829 -90 19 C-89.23631104 18.47422363 -88.47262207 17.94844727 -87.68579102 17.40673828 C-85.32279267 15.95937866 -82.94797497 14.53502274 -80.5625 13.125 C-79.74201172 12.61453125 -78.92152344 12.1040625 -78.07617188 11.578125 C-74.40037379 9.4072626 -71.84886734 8.03928167 -67.5390625 7.83984375 C-62.60203569 9.45827307 -58.29929516 11.84300493 -53.8125 14.4375 C-52.04840459 15.43659972 -50.28408984 16.43531229 -48.51953125 17.43359375 C-47.74714111 17.87759521 -46.97475098 18.32159668 -46.17895508 18.77905273 C-45.10037231 19.38342163 -45.10037231 19.38342163 -44 20 C-43.00021118 20.63869019 -43.00021118 20.63869019 -41.98022461 21.2902832 C-39.99212609 22.23764176 -39.99212609 22.23764176 -37.96386719 21.28417969 C-37.24875977 20.83461914 -36.53365234 20.38505859 -35.796875 19.921875 C-34.98863281 19.42461914 -34.18039063 18.92736328 -33.34765625 18.41503906 C-32.49042969 17.86557617 -31.63320312 17.31611328 -30.75 16.75 C-29.42548828 15.92967285 -29.42548828 15.92967285 -28.07421875 15.09277344 C-23.77920661 12.42461302 -19.5231492 9.69616992 -15.265625 6.96875 C-14.1813623 6.27894043 -14.1813623 6.27894043 -13.07519531 5.57519531 C-11.71928778 4.70932871 -10.36934241 3.83403436 -9.02636719 2.94824219 C-5.63322781 0.76603731 -4.15409216 0 0 0 Z " fill="#4083F0" transform="translate(168,61)"/>
<path d="M0 0 C12.01700095 5.6596198 23.50778376 12.3558687 35 19 C36.39943848 19.62261719 36.39943848 19.62261719 37.82714844 20.2578125 C38.54418945 20.83273438 39.26123047 21.40765625 40 22 C40.27856445 25.0559082 40.27856445 25.0559082 39.86328125 28.80078125 C39.75913141 30.17835382 39.66356648 31.55659683 39.57568359 32.93530273 C39.50495636 34.0102449 39.50495636 34.0102449 39.43280029 35.10690308 C38.68016942 46.68735366 38.68016942 46.68735366 43.33251953 56.86035156 C50.65695131 62.65255146 59.20814963 66.06938321 68 69 C68 84.18 68 99.36 68 115 C62.31572182 115 61.11168208 114.91891462 56.578125 112.2890625 C55.56145752 111.70850098 54.54479004 111.12793945 53.49731445 110.52978516 C52.42570068 109.90120605 51.35408691 109.27262695 50.25 108.625 C47.99888616 107.3330053 45.74758289 106.04134058 43.49609375 104.75 C41.83876221 103.7909375 41.83876221 103.7909375 40.14794922 102.8125 C35.89741651 100.36516365 31.60828344 97.99163872 27.3125 95.625 C25.88763245 94.83272935 24.4631417 94.03978056 23.0390625 93.24609375 C20.3518166 91.74895075 17.65827618 90.2640238 14.9609375 88.78515625 C13.70288829 88.08636349 12.44506334 87.38716677 11.1875 86.6875 C10.10855469 86.09324219 9.02960937 85.49898438 7.91796875 84.88671875 C4.26828347 82.52688208 0.9719775 79.943955 -1 76 C-1.09735005 73.67220838 -1.1279732 71.34154468 -1.12939453 69.01171875 C-1.13114685 68.29287506 -1.13289917 67.57403137 -1.13470459 66.83340454 C-1.13911469 64.45141198 -1.13618807 62.06949335 -1.1328125 59.6875 C-1.13348578 58.03605129 -1.13445601 56.38460267 -1.13571167 54.7331543 C-1.1371875 51.26968443 -1.13503776 47.80624032 -1.13037109 44.34277344 C-1.12467387 39.89710947 -1.12795349 35.45150587 -1.13394356 31.00584412 C-1.13755226 27.59500674 -1.13640916 24.18418375 -1.13381577 20.77334595 C-1.13314735 19.13383985 -1.13397194 17.49433247 -1.13629532 15.85482788 C-1.13882688 13.56594369 -1.13497411 11.27715808 -1.12939453 8.98828125 C-1.12859894 7.68415283 -1.12780334 6.38002441 -1.12698364 5.03637695 C-1 2 -1 2 0 0 Z " fill="#072F40" transform="translate(32,62)"/>
<path d="M0 0 C3.50399262 1.59388178 6.84150468 3.41209267 10.1875 5.3125 C11.52071289 6.04243164 11.52071289 6.04243164 12.88085938 6.78710938 C21.23053937 11.44812533 21.23053937 11.44812533 24 15 C24.74906368 19.26633381 24.65886617 23.51745083 24.63134766 27.84448242 C24.62502563 29.92904996 24.67194435 32.00793162 24.72265625 34.09179688 C24.73241321 44.07804854 24.73241321 44.07804854 21.5546875 48.078125 C20.39478282 48.76296051 19.2058924 49.39983164 18 50 C16.48775843 50.96198098 14.97747791 51.92704892 13.46875 52.89453125 C11.8160803 53.87325854 10.15974562 54.84582078 8.5 55.8125 C7.67113281 56.31458984 6.84226563 56.81667969 5.98828125 57.33398438 C4.77205078 58.04458008 4.77205078 58.04458008 3.53125 58.76953125 C2.80486328 59.19854736 2.07847656 59.62756348 1.33007812 60.06958008 C-1.68504036 61.27354241 -3.77102745 61.34458075 -7 61 C-9.8684082 59.73071289 -9.8684082 59.73071289 -12.80078125 57.97265625 C-13.85974609 57.34552734 -14.91871094 56.71839844 -16.00976562 56.07226562 C-17.09966797 55.40904297 -18.18957031 54.74582031 -19.3125 54.0625 C-20.42173828 53.40314453 -21.53097656 52.74378906 -22.67382812 52.06445312 C-30.76864077 47.23135923 -30.76864077 47.23135923 -32 46 C-32.3148104 41.65672112 -32.35681289 37.3077038 -32.4050293 32.95458984 C-32.4265745 31.49178407 -32.46063762 30.02910602 -32.50756836 28.56689453 C-32.57473047 26.4554708 -32.6020505 24.34671757 -32.62109375 22.234375 C-32.6461499 20.96819336 -32.67120605 19.70201172 -32.69702148 18.39746094 C-31.75360822 13.79902346 -29.7994029 12.61437829 -26 10 C-25.23631104 9.47422363 -24.47262207 8.94844727 -23.68579102 8.40673828 C-21.32279267 6.95937866 -18.94797497 5.53502274 -16.5625 4.125 C-15.74201172 3.61453125 -14.92152344 3.1040625 -14.07617188 2.578125 C-8.98934959 -0.42606374 -5.89342098 -1.9189395 0 0 Z " fill="#D4EEFD" transform="translate(104,70)"/>
<path d="M0 0 C3 2 3 2 3.38095093 3.83930969 C3.3845311 4.95586189 3.3845311 4.95586189 3.38818359 6.0949707 C3.39764008 6.93957352 3.40709656 7.78417633 3.4168396 8.65437317 C3.41076691 9.56893784 3.40469421 10.4835025 3.3984375 11.42578125 C3.40130768 12.36552292 3.40417786 13.30526459 3.40713501 14.27348328 C3.40917918 16.26492921 3.40362474 18.25639506 3.39111328 20.24780273 C3.37511824 23.29001144 3.39092232 26.33088068 3.41015625 29.37304688 C3.40817283 31.30729459 3.40432711 33.24154148 3.3984375 35.17578125 C3.40754654 36.53851921 3.40754654 36.53851921 3.4168396 37.92878723 C3.36364012 42.7334822 3.26217342 46.1974584 0 50 C-2.35327148 51.74169922 -2.35327148 51.74169922 -5.12109375 53.3046875 C-6.14009766 53.88863281 -7.15910156 54.47257812 -8.20898438 55.07421875 C-9.27439453 55.66847656 -10.33980469 56.26273438 -11.4375 56.875 C-12.9834082 57.75478516 -12.9834082 57.75478516 -14.56054688 58.65234375 C-16.64254243 59.83721927 -18.72768065 61.01658966 -20.81591797 62.19042969 C-25.12167977 64.63747051 -29.37291101 67.17417523 -33.62133789 69.71923828 C-36 71 -36 71 -38 71 C-38 80.9 -38 90.8 -38 101 C-38.33 101 -38.66 101 -39 101 C-39 85.82 -39 70.64 -39 55 C-35.04 53.02 -31.08 51.04 -27 49 C-24.60186742 47.62285456 -22.22104578 46.21411702 -19.875 44.75 C-18.79992187 44.08484375 -17.72484375 43.4196875 -16.6171875 42.734375 C-13.97706478 41.10961298 -13.97706478 41.10961298 -12 39 C-11.9212119 35.91759109 -11.9212119 35.91759109 -12.2265625 32.3046875 C-12.29088478 30.93503899 -12.35197696 29.5652357 -12.41015625 28.1953125 C-12.50853882 26.03872744 -12.62377513 23.8903583 -12.79541016 21.73828125 C-13.15846796 16.99110852 -13.25940144 12.64604873 -12 8 C-8.43500213 4.35552358 -4.61486933 2.11309248 0 0 Z " fill="#386FB1" transform="translate(139,76)"/>
<path d="M0 0 C1.03721191 0.58499268 2.07442383 1.16998535 3.14306641 1.77270508 C3.71110992 2.09000076 4.27915344 2.40729645 4.8644104 2.73420715 C6.05884598 3.40405469 7.250344 4.07916517 8.43896484 4.75927734 C10.22736172 5.78235836 12.02391336 6.78960695 13.82275391 7.79418945 C20.3574555 11.46661453 26.71740902 15.3187503 32.86962891 19.60473633 C29.24687271 23.68033705 25.39693705 27.55716671 19.86962891 28.60473633 C15.87512874 27.39446696 12.60006623 25.24618145 9.11962891 22.97973633 C8.18763672 22.40610352 7.25564453 21.8324707 6.29541016 21.24145508 C4.56249217 20.17485276 2.83778699 19.09470281 1.12451172 17.99682617 C-2.82733403 15.55708771 -5.29673045 14.07390574 -10.06982422 14.94116211 C-14.5429436 16.38167615 -18.42718713 19.05415783 -22.38037109 21.54223633 C-23.27755859 22.09331055 -24.17474609 22.64438477 -25.09912109 23.2121582 C-28.47875874 25.2940757 -31.82744909 27.40278832 -35.13037109 29.60473633 C-42.06037109 25.64473633 -42.06037109 25.64473633 -49.13037109 21.60473633 C-45.55951969 18.7480552 -42.36456152 16.42271448 -38.48974609 14.10864258 C-37.41853516 13.46733398 -36.34732422 12.82602539 -35.24365234 12.1652832 C-34.13376953 11.50592773 -33.02388672 10.84657227 -31.88037109 10.16723633 C-30.78595703 9.51174805 -29.69154297 8.85625977 -28.56396484 8.1809082 C-26.41751355 6.89946393 -24.26592174 5.62658469 -22.10888672 4.36303711 C-20.24723659 3.26405315 -18.3993179 2.14105649 -16.57373047 0.9831543 C-15.81382813 0.5166748 -15.05392578 0.05019531 -14.27099609 -0.43041992 C-13.63194336 -0.83784424 -12.99289063 -1.24526855 -12.33447266 -1.66503906 C-7.95284508 -3.11668373 -4.08793213 -1.82206615 0 0 Z " fill="#38BF6F" transform="translate(107.13037109375,55.395263671875)"/>
<path d="M0 0 C1.76391602 0.33764648 1.76391602 0.33764648 4 1 C5.17550415 1.32109741 5.17550415 1.32109741 6.37475586 1.64868164 C9.23137635 2.77699013 10.93684863 3.69995809 13 6 C13.60877151 10.46409618 13.13517803 14.79455624 12.73455811 19.25778198 C11.78086647 30.74116768 11.78086647 30.74116768 16.31494141 40.8515625 C23.64494722 46.64676128 32.20221149 50.06740383 41 53 C41 58.28 41 63.56 41 69 C36.38493512 67.46164504 32.91682973 66.001555 28.75390625 63.6640625 C27.89260353 63.18312637 27.89260353 63.18312637 27.01390076 62.69247437 C25.19403468 61.67477095 23.37826062 60.65000666 21.5625 59.625 C20.34856758 58.94484772 19.13437684 58.26515629 17.91992188 57.5859375 C15.61135654 56.29386622 13.30700688 54.99511965 11.00439453 53.69238281 C9.23168384 52.69381053 7.45351259 51.70465696 5.66357422 50.73730469 C2.53616343 49.03556576 1.02333757 48.03500636 -1 45 C-1.24723816 42.97555542 -1.24723816 42.97555542 -1.24291992 40.63623047 C-1.24599655 39.75877167 -1.24907318 38.88131287 -1.25224304 37.9772644 C-1.24505753 37.03343903 -1.23787201 36.08961365 -1.23046875 35.1171875 C-1.23001053 34.14717804 -1.22955231 33.17716858 -1.2290802 32.17776489 C-1.22605958 30.12842586 -1.21817897 28.07908909 -1.20581055 26.02978516 C-1.18753164 22.88045186 -1.18530102 19.7314121 -1.18554688 16.58203125 C-1.18063256 14.59374744 -1.17480463 12.60546563 -1.16796875 10.6171875 C-1.16685593 9.66931366 -1.1657431 8.72143982 -1.16459656 7.74484253 C-1.15821671 6.87368805 -1.15183685 6.00253357 -1.14526367 5.10498047 C-1.14145187 4.33459442 -1.13764008 3.56420837 -1.13371277 2.77047729 C-1 1 -1 1 0 0 Z " fill="#04171A" transform="translate(59,78)"/>
</svg>
