<svg xmlns="http://www.w3.org/2000/svg" width="32" height="32" viewBox="0 0 32 32"><g transform="translate(0 -1020.362)"><path fill="#e9eded" fill-rule="evenodd" stroke="#f17f53" stroke-linecap="round" stroke-linejoin="round" d="m 26.49644,1027.8658 0,21.5 c 0,0.831 -0.66899,1.5 -1.49998,1.5 l -18.00004,0 c -0.83099,0 -1.49998,-0.669 -1.49998,-1.5 l 0,-26 c 0,-0.831 0.66899,-1.5 1.49998,-1.5 l 13.50002,0 z"/><path fill="#f17f53" d="m 5,1044.3658 0,2 0,2 0,1 c 0,1.108 0.89198,2 2,2 l 18,0 c 1.10802,0 2,-0.892 2,-2 l 0,-1 0,-2 0,-2 -2,0 -18,0 -2,0 z"/><path fill="#f17f53" stroke="#f17f53" stroke-linecap="round" stroke-linejoin="round" d="m 26.49644,1027.8658 -4.49997,0 c -0.83099,0 -1.49998,-0.6691 -1.49998,-1.5 l 0,-4.5"/><path style="line-height:normal;text-indent:0;text-align:start;text-decoration-line:none;text-decoration-style:solid;text-decoration-color:#000;text-transform:none;block-progression:tb;isolation:auto;mix-blend-mode:normal" fill="#f17f53" d="M 13.507812 10.003906 C 12.408461 10.003906 11.507813 10.904606 11.507812 12.003906 L 11.507812 12.958984 L 11.507812 13.003906 C 11.507812 13.566606 11.070462 14.003906 10.507812 14.003906 A 0.50005 0.50005 0 0 0 10.009766 14.410156 A 0.50005 0.50005 0 0 0 10.009766 14.412109 A 0.50005 0.50005 0 0 0 10.158203 14.867188 A 0.50005 0.50005 0 0 0 10.236328 14.927734 A 0.50005 0.50005 0 0 0 10.375 14.986328 A 0.50005 0.50005 0 0 0 10.472656 15.001953 A 0.50005 0.50005 0 0 0 10.507812 15.003906 C 11.070462 15.003906 11.507812 15.441306 11.507812 16.003906 L 11.507812 16.050781 L 11.507812 17.003906 C 11.507812 18.103306 12.408462 19.003906 13.507812 19.003906 A 0.50005 0.50005 0 1 0 13.507812 18.003906 C 12.945165 18.003906 12.507812 17.566606 12.507812 17.003906 L 12.507812 16.050781 L 12.507812 16.003906 C 12.507812 15.40562 12.234841 14.87136 11.814453 14.503906 C 12.235381 14.136451 12.507812 13.602691 12.507812 13.003906 L 12.507812 12.958984 L 12.507812 12.003906 C 12.507812 11.441306 12.945164 11.003906 13.507812 11.003906 A 0.50005 0.50005 0 1 0 13.507812 10.003906 z M 17.441406 10.003906 A 0.50005 0.50005 0 0 0 17.492188 11.003906 C 18.054835 11.003906 18.492188 11.441306 18.492188 12.003906 L 18.492188 12.958984 L 18.492188 13.003906 C 18.492188 13.602691 18.764619 14.136451 19.185547 14.503906 C 18.765159 14.87136 18.492188 15.40562 18.492188 16.003906 L 18.492188 16.050781 L 18.492188 17.003906 C 18.492188 17.566606 18.054835 18.003906 17.492188 18.003906 A 0.50005 0.50005 0 1 0 17.492188 19.003906 C 18.591538 19.003906 19.492188 18.103306 19.492188 17.003906 L 19.492188 16.050781 L 19.492188 16.003906 C 19.492188 15.441306 19.929538 15.003906 20.492188 15.003906 A 0.50005 0.50005 0 0 0 20.816406 14.890625 A 0.50005 0.50005 0 0 0 20.853516 14.855469 A 0.50005 0.50005 0 0 0 20.492188 14.003906 C 19.929538 14.003906 19.492188 13.566606 19.492188 13.003906 L 19.492188 12.958984 L 19.492188 12.003906 C 19.492188 10.904606 18.591538 10.003906 17.492188 10.003906 A 0.50005 0.50005 0 0 0 17.441406 10.003906 z M 15.5 12 A 0.5 0.5 0 0 0 15 12.5 A 0.5 0.5 0 0 0 15.5 13 A 0.5 0.5 0 0 0 16 12.5 A 0.5 0.5 0 0 0 15.5 12 z M 15.492188 13.994141 A 0.50005 0.50005 0 0 0 15 14.5 L 15 17.5 A 0.50005 0.50005 0 1 0 16 17.5 L 16 14.5 A 0.50005 0.50005 0 0 0 15.492188 13.994141 z " color="#000" font-family="sans-serif" font-weight="400" overflow="visible" transform="translate(0 1020.362)"/><path style="line-height:normal;text-indent:0;text-align:start;text-decoration-line:none;text-decoration-style:solid;text-decoration-color:#000;text-transform:none;block-progression:tb;isolation:auto;mix-blend-mode:normal" fill="#e9eded" fill-rule="evenodd" d="M 22.517578 24.988281 A 0.50005 0.50005 0 0 0 22.466797 24.990234 A 0.50005 0.50005 0 0 0 21.998047 25.53125 L 21.998047 29.494141 A 0.50005 0.50005 0 1 0 22.998047 29.494141 L 22.998047 26.994141 L 25.080078 29.773438 A 0.50005 0.50005 0 0 0 25.082031 29.777344 L 25.095703 29.794922 A 0.50005 0.50005 0 0 0 25.998047 29.494141 L 25.998047 25.505859 A 0.50005 0.50005 0 0 0 25.490234 24.998047 A 0.50005 0.50005 0 0 0 24.998047 25.505859 L 24.998047 27.996094 L 22.900391 25.195312 A 0.50005 0.50005 0 0 0 22.517578 24.988281 z M 9.4921875 25 A 0.50005 0.50005 0 0 0 9 25.507812 L 9 28.5 C 9 28.7857 8.7856308 29 8.5 29 C 8.2143707 29 8 28.7857 8 28.5 A 0.50005 0.50005 0 0 0 7.4921875 27.994141 A 0.50005 0.50005 0 0 0 7 28.5 C 7 29.3224 7.6776553 30 8.5 30 C 9.2739392 30 9.911031 29.396835 9.984375 28.640625 A 0.50005 0.50005 0 0 0 10 28.507812 C 10.000014 28.505157 10 28.502659 10 28.5 L 10 25.507812 A 0.50005 0.50005 0 0 0 9.4921875 25 z M 18.5 25 C 17.125211 25 16 26.1252 16 27.5 C 16 28.8748 17.125211 30 18.5 30 C 19.874789 30 21 28.8748 21 27.5 C 21 26.1252 19.874789 25 18.5 25 z M 12.441406 25.003906 A 0.50005 0.50005 0 0 0 12.378906 25.015625 C 11.609409 25.075337 10.992187 25.720341 10.992188 26.503906 C 10.992188 27.294264 11.61974 27.944174 12.398438 27.994141 A 0.50005 0.50005 0 0 0 12.492188 28.003906 L 13.492188 28.003906 C 13.777836 28.003906 13.992188 28.218306 13.992188 28.503906 C 13.992188 28.789606 13.777836 29.003906 13.492188 29.003906 L 11.492188 29.003906 A 0.50005 0.50005 0 1 0 11.492188 30.003906 L 13.492188 30.003906 A 0.50005 0.50005 0 0 0 13.595703 29.992188 C 14.369772 29.93729 14.992187 29.290893 14.992188 28.503906 C 14.992188 27.718293 14.371922 27.070431 13.599609 27.013672 A 0.50005 0.50005 0 0 0 13.492188 27.003906 L 12.527344 27.003906 A 0.50005 0.50005 0 0 0 12.492188 27.003906 C 12.206539 27.003906 11.992188 26.789606 11.992188 26.503906 C 11.992188 26.218306 12.206539 26.003906 12.492188 26.003906 L 14.492188 26.003906 A 0.50005 0.50005 0 1 0 14.492188 25.003906 L 12.527344 25.003906 A 0.50005 0.50005 0 0 0 12.492188 25.003906 A 0.50005 0.50005 0 0 0 12.441406 25.003906 z M 18.5 26 C 19.334349 26 20 26.6657 20 27.5 C 20 28.3344 19.334349 29 18.5 29 C 17.665651 29 17 28.3344 17 27.5 C 17 26.6657 17.665651 26 18.5 26 z " color="#000" font-family="sans-serif" font-weight="400" overflow="visible" transform="translate(0 1020.362)"/></g></svg>