<svg xmlns="http://www.w3.org/2000/svg" enable-background="new 0 0 36 36" viewBox="0 0 36 36"><path fill="#EFEFEF" d="M8.377,4.167c6.917,0,11.667-3.583,15-3.583S33.71,2.5,33.71,17.833s-9.417,17.583-13.083,17.583C3.46,35.417-3.873,4.167,8.377,4.167z"/><path fill="#A4AFC1" d="M27.682,11.393c-0.827,0-1.5-0.673-1.5-1.5s0.673-1.5,1.5-1.5s1.5,0.673,1.5,1.5S28.509,11.393,27.682,11.393z M27.682,9.393c-0.275,0-0.5,0.225-0.5,0.5s0.225,0.5,0.5,0.5s0.5-0.225,0.5-0.5S27.957,9.393,27.682,9.393z"/><rect width="2" height="1" x="10.225" y="28.004" fill="#A4AFC1"/><rect width="2" height="1" x="4.475" y="28.004" fill="#A4AFC1"/><rect width="1" height="2" x="7.975" y="24.504" fill="#A4AFC1"/><rect width="1" height="2" x="7.975" y="30.254" fill="#A4AFC1"/><rect width="15.91" height="15.91" x="10.045" y="10.045" fill="#2FDF84" transform="rotate(-45.001 18 18)"/><polygon fill="#00B871" points="9 18 19.125 7.875 18 6.75 6.75 18 18 29.25 19.125 28.125"/><path d="M18,30c-0.192,0-0.384-0.073-0.53-0.22L6.22,18.53c-0.293-0.293-0.293-0.768,0-1.061L17.47,6.22c0.293-0.293,0.768-0.293,1.061,0l11.25,11.25c0.293,0.293,0.293,0.768,0,1.061L18.53,29.78C18.384,29.927,18.192,30,18,30z M7.811,18L18,28.189L28.189,18L18,7.811L7.811,18z"/><rect width="16.228" height="1.499" x="7.534" y="14.898" transform="rotate(-56.373 15.646 15.647)"/><rect width="1.501" height="17.201" x="20.563" y="6.086" transform="rotate(-67.343 21.314 14.687)"/><rect width="15.274" height="1.501" x="14.061" y="18.379" transform="rotate(-81.471 21.698 19.13)"/><rect width="1.501" height="18.927" x="15.25" y="10.536" transform="rotate(-77.801 16 20)"/><rect width="16.951" height="1.499" x="8.909" y="16.657" transform="rotate(-25.133 17.382 17.405)"/><rect width="1.5" height="16.303" x="13.755" y="13.343" transform="rotate(-32.382 14.507 21.495)"/></svg>