<svg xmlns="http://www.w3.org/2000/svg" xmlns:xlink="http://www.w3.org/1999/xlink" style="shape-rendering:geometricPrecision;text-rendering:geometricPrecision;image-rendering:optimizeQuality;fill-rule:evenodd;clip-rule:evenodd" width="666.667" height="666.667" version="1.1" viewBox="0 0 17639 17639" xml:space="preserve"><defs><style type="text/css">.fil1{fill:#252653}.fil0{fill:#87bcf6}</style></defs><g id="Layer_x0020_1"><rect width="15476" height="15381" x="1082" y="1129" class="fil0"/><rect width="12882" height="12803" x="2379" y="2418" class="fil1"/><path d="M12556 7176c-1146,-578 -3119,-298 -3119,1210 0,1123 777,1565 1727,1936 1350,527 38,1523 -1610,493 0,0 -59,-29 -88,0 -29,29 -29,58 -29,88 0,29 0,1082 0,1082 576,295 1006,445 1671,438 2145,-22 2454,-2076 1313,-2866 -207,-144 -761,-431 -936,-498 -907,-346 -830,-838 -542,-1086 318,-275 1200,141 1571,373 225,139 262,-34 261,-186l-3 -719c0,-171 -59,-185 -216,-265z" class="fil0"/><path d="M5932 8972l0 -2634c0,-13 46,-58 58,-58 1116,-57 1751,161 1808,1353 65,1368 -1082,1397 -1866,1397l0 -58zm-1346 -3658l0 7081 1346 0 0 -2282c1654,118 3146,-475 3146,-2387 0,-771 -240,-1547 -809,-2016 -795,-656 -2653,-510 -3683,-396z" class="fil0"/></g></svg>