<svg xmlns="http://www.w3.org/2000/svg" enable-background="new 0 0 64 64" viewBox="0 0 64 64"><path fill="#696867" d="M59.96,51.95H4.04V19.28c0-1.24,1-2.24,2.24-2.24h51.45c1.24,0,2.24,1,2.24,2.24V51.95z"/><rect width="29.82" height="50.84" x="17.09" y="9.08" fill="#57b3e5" transform="rotate(90 32 34.498)"/><path fill="#48484c" d="M59.17,56.79H4.83C2.16,56.79,0,54.62,0,51.95l0,0h64l0,0C64,54.62,61.84,56.79,59.17,56.79z"/><path fill="#e4e4e3" d="M38.99,51.95H25.01l0,0c0,1.33,1.08,2.42,2.42,2.42h9.16C37.91,54.37,38.99,53.29,38.99,51.95L38.99,51.95z"/><path fill="#c7c7c7" d="M50.32,49.41H13.68c-1.58,0-2.85-1.28-2.85-2.85V10.07c0-1.58,1.28-2.85,2.85-2.85h36.63 c1.58,0,2.85,1.28,2.85,2.85v36.49C53.17,48.13,51.89,49.41,50.32,49.41z"/><path fill="#e4e4e3" d="M12.75,46.11V14.93c0-0.76,0.61-1.37,1.37-1.37h35.75c0.76,0,1.37,0.61,1.37,1.37v31.19 c0,0.76-0.61,1.37-1.37,1.37H14.12C13.37,47.49,12.75,46.87,12.75,46.11z"/><path fill="#da4765" d="M16.44,10.38c0,0.58-0.47,1.05-1.05,1.05c-0.58,0-1.05-0.47-1.05-1.05c0-0.58,0.47-1.05,1.05-1.05 C15.97,9.33,16.44,9.8,16.44,10.38z"/><path fill="#ffd464" d="M19.67,10.38c0,0.58-0.47,1.05-1.05,1.05c-0.58,0-1.05-0.47-1.05-1.05c0-0.58,0.47-1.05,1.05-1.05 C19.2,9.33,19.67,9.8,19.67,10.38z"/><path fill="#1a7d57" d="M22.9,10.38c0,0.58-0.47,1.05-1.05,1.05c-0.58,0-1.05-0.47-1.05-1.05c0-0.58,0.47-1.05,1.05-1.05 C22.43,9.33,22.9,9.8,22.9,10.38z"/><path fill="#f4f4f4" d="M49.3,11.44H24.96c-0.2,0-0.37-0.16-0.37-0.37V9.7c0-0.2,0.16-0.37,0.37-0.37H49.3 c0.2,0,0.37,0.16,0.37,0.37v1.37C49.66,11.27,49.5,11.44,49.3,11.44z"/><g><rect width="38.43" height="13.02" x="12.75" y="16.38" fill="#7ca3c2"/><rect width="4.8" height="4.8" x="17.81" y="33.91" fill="#7ca3c2"/><rect width="4.8" height=".96" x="17.81" y="40.72" fill="#7ca3c2"/><rect width="4.8" height=".96" x="17.81" y="43.7" fill="#7ca3c2"/><rect width="4.8" height="4.8" x="25.65" y="33.91" fill="#7ca3c2"/><rect width="4.8" height=".96" x="25.65" y="40.72" fill="#7ca3c2"/><rect width="4.8" height=".96" x="25.65" y="43.7" fill="#7ca3c2"/><rect width="4.8" height="4.8" x="33.48" y="33.91" fill="#7ca3c2"/><rect width="4.8" height=".96" x="33.48" y="40.72" fill="#7ca3c2"/><rect width="4.8" height=".96" x="33.48" y="43.7" fill="#7ca3c2"/><g><rect width="4.8" height="4.8" x="41.32" y="33.91" fill="#7ca3c2"/><rect width="4.8" height=".96" x="41.32" y="40.72" fill="#7ca3c2"/><rect width="4.8" height=".96" x="41.32" y="43.7" fill="#7ca3c2"/></g></g></svg>