<svg xmlns="http://www.w3.org/2000/svg" xmlns:xlink="http://www.w3.org/1999/xlink" id="Layer_1" x="0" y="0" version="1.0" viewBox="0 0 229.2 164.4" xml:space="preserve" style="enable-background:new 0 0 229.2 164.4"><style type="text/css">.st0{fill:#9187f6}.st1{fill:#8313dd}.st2{fill:#303395}.st3{fill:none}</style><path d="M39.3,68.3c0.6-0.5,1.4-0.5,2,0.1c1.4,1.4,2.9,2.9,4.3,4.3l-2.1,2.2l-2.7-2.7c-0.3-0.3-0.7-0.3-1.1-0.1	c0,0,0,0-0.1,0.1c-3.2,3.1-6.3,6.3-9.5,9.5c-0.3,0.3-0.4,0.8-0.1,1.1c0,0,0.1,0.1,0.1,0.1c3,3,6,6,9,9c0.2,0.3,0.5,0.5,0.8,0.7	c0.3,0.1,0.7,0,0.9-0.2l2.6-2.6l2.1,2.2l-4,4c-0.3,0.3-0.6,0.5-0.9,0.7c-0.6,0.2-1.2,0-1.6-0.4c-4.2-4.2-8.5-8.5-12.7-12.7	c-0.6-0.6-0.6-1.6,0-2.2c0,0,0,0,0,0C30.7,76.9,35,72.6,39.3,68.3L39.3,68.3z" class="st0"/><path d="M49.9,68.3c0.6-0.6,1.6-0.6,2.2,0c0,0,0,0,0,0l12.7,12.7c0.4,0.4,0.6,1,0.4,1.6c-0.2,0.4-0.5,0.7-0.8,1	l-11.9,12c-0.3,0.3-0.6,0.6-1,0.8c-0.6,0.2-1.2,0-1.6-0.4l-4.3-4.2l-2.1-2.1l-6.4-6.4c-0.6-0.6-0.6-1.6,0-2.1c0,0,0,0,0,0l6.3-6.3	l2.2-2.2C47,71.2,48.5,69.8,49.9,68.3L49.9,68.3z" class="st1"/><path d="M71.1,71.9c0.5-0.9,1.7-1.1,2.5-0.6c0.2,0.1,0.4,0.3,0.5,0.5c0.2,0.3,0.3,0.7,0.4,1.1l2.9,11.7	c0.1,0.5,0.2,1,0.4,1.5l3.7-13.3c0.1-0.7,0.5-1.2,1.1-1.6c0.6-0.3,1.4-0.2,1.9,0.2c0.3,0.3,0.5,0.7,0.7,1.1c1.3,4.5,2.5,9,3.9,13.5	c1.1-4.4,2.2-8.9,3.2-13.3c0.1-0.5,0.3-1,0.7-1.4c0.8-0.6,2-0.5,2.6,0.3c0.1,0.1,0.1,0.2,0.2,0.3c0.3,0.6,0.3,1.4,0,2	c-1.5,5.7-3.1,11.4-4.6,17.1c-0.1,0.7-0.6,1.4-1.3,1.7c-0.6,0.2-1.2,0.1-1.8-0.2c-0.4-0.4-0.7-1-0.9-1.6c-1.2-4.4-2.5-8.9-3.7-13.3	c-1.3,4.5-2.6,9-3.8,13.6c-0.2,0.7-0.6,1.3-1.3,1.6c-0.6,0.2-1.3,0.1-1.8-0.3c-0.4-0.4-0.7-1-0.8-1.6c-1.5-5.7-3.1-11.4-4.6-17.1	C70.8,73.3,70.9,72.6,71.1,71.9 M98.2,72.8c0-1,0.7-1.8,1.7-1.8c1,0,1.8,0.7,1.8,1.7c0,2.1,0,4.2,0,6.2c0.8-1,1.9-1.6,3.2-1.8	c1.2-0.2,2.4,0,3.4,0.6c1.3,0.7,2.2,1.9,2.5,3.3c0.2,1.1,0.3,2.2,0.2,3.3c0,2.3,0,4.6,0,6.8c0,1-0.7,1.8-1.7,1.8	c-1,0-1.8-0.7-1.8-1.7c0-2.6,0-5.3,0-7.9c0.1-1.2-0.6-2.3-1.6-2.9c-1.1-0.4-2.3-0.2-3.2,0.5c-0.6,0.7-0.9,1.7-0.9,2.6V91	c0,0.4-0.1,0.8-0.3,1.1c-0.6,0.8-1.7,1-2.6,0.4c-0.2-0.1-0.3-0.3-0.4-0.4c-0.3-0.5-0.3-1.1-0.3-1.7C98.2,84.6,98.2,78.7,98.2,72.8 M115,71.1c1.1-0.4,2.3,0.2,2.7,1.3c0.1,0.2,0.1,0.4,0.1,0.7c0.1,1.2-0.8,2.1-2,2.2c-0.1,0-0.2,0-0.2,0c-1.2,0-2.1-1-2.1-2.2	C113.6,72.2,114.1,71.4,115,71.1 M161.2,71.1c1.1-0.5,2.4,0,2.9,1.1c0.1,0.1,0.1,0.3,0.1,0.5c0.2,1.1-0.5,2.3-1.7,2.5	c-0.1,0-0.2,0-0.3,0c-1.2,0.1-2.2-0.9-2.2-2C159.9,72.3,160.4,71.5,161.2,71.1 M198.2,71.1c0.7-0.2,1.4,0,1.9,0.4	c0.4,0.4,0.5,1,0.5,1.5v15.2c0,0.4,0.1,0.9,0.4,1.2c0.5,0.4,1.2,0.2,1.8,0.6c0.7,0.6,0.7,1.6,0.1,2.3c-0.1,0.1-0.2,0.2-0.3,0.3	c-1.6,0.5-3.3,0.2-4.6-0.9c-0.6-0.9-1-2.1-0.9-3.2c0-5,0-10,0-15.1c0-0.5,0-1,0.1-1.4C197.3,71.6,197.7,71.2,198.2,71.1 M124.1,78.9	c1-1.2,2.5-1.8,4-1.8c1.7-0.1,3.3,0.7,4.3,2c1-1.1,2.3-1.8,3.8-2c1.5-0.3,3.1,0,4.4,0.9c1.5,1.1,2.4,3,2.2,4.9c0,2.8,0,5.5,0,8.3	c0,0.9-0.7,1.6-1.6,1.7c-0.9,0.2-1.8-0.5-2-1.4c0-0.1,0-0.2,0-0.2c0-2.6,0-5.3,0-7.9c0.1-1.6-1-3-2.6-3.1c-0.8-0.1-1.7,0.2-2.3,0.8	c-0.6,0.7-0.9,1.5-0.9,2.4v7.4c0,0.5-0.1,0.9-0.4,1.3c-0.6,0.7-1.8,0.9-2.6,0.3c-0.5-0.4-0.7-1-0.6-1.6c0-2.5,0-5.1,0-7.6	c0.1-1.6-1.1-2.9-2.7-3c-0.9,0-1.7,0.3-2.3,0.9c-0.6,0.7-0.9,1.6-0.8,2.5v7.3c0,0.4-0.1,0.9-0.3,1.2c-0.6,0.8-1.8,1-2.6,0.4	c-0.2-0.1-0.3-0.3-0.4-0.4c-0.2-0.3-0.3-0.7-0.3-1.2V79.2c0-0.5,0.1-1,0.5-1.4c0.5-0.5,1.3-0.6,2-0.4	C123.5,77.7,124,78.2,124.1,78.9 M150.7,77.2c2-0.2,4,0.3,5.7,1.3c0.7,0.5,0.9,1.4,0.5,2.1c-0.1,0.1-0.1,0.2-0.2,0.3	c-0.5,0.5-1.3,0.5-1.9,0.2c-1.4-0.8-3-1.1-4.6-0.8c-0.7,0.1-1.3,0.8-1.3,1.5c0,0.6,0.5,1.1,1.1,1.3c1.7,0.5,3.5,0.2,5.1,0.9	c1.2,0.4,2.1,1.4,2.5,2.6c0.4,1.3,0.2,2.6-0.3,3.8c-0.8,1.4-2.1,2.3-3.6,2.6c-2.4,0.5-5,0.2-7.2-0.9c-0.6-0.2-1-0.6-1.4-1.1	c-0.4-0.8,0-1.7,0.7-2.2c0.6-0.3,1.3-0.2,1.8,0.2c1,0.7,2.1,1.1,3.3,1.2c1,0.2,2.1-0.1,2.9-0.7c0.6-0.5,0.7-1.5,0.1-2.1	c-0.1-0.1-0.3-0.3-0.5-0.4c-1.6-0.6-3.4-0.3-5-0.9c-1.2-0.3-2.2-1.2-2.7-2.4c-0.6-1.7-0.2-3.7,1-5c1.1-1,2.5-1.6,4-1.6 M172.5,77.2	c1.9-0.3,3.7,0.3,5.2,1.4c0.7,0.4,1.1,1.2,1.1,2c0,0.8-0.7,1.5-1.6,1.5c-0.1,0-0.1,0-0.2,0c-0.9-0.1-1.4-1.1-2.2-1.4	c-1.3-0.6-2.8-0.3-3.7,0.7c-0.7,1.1-1,2.4-0.9,3.7c0,1.3,0,2.8,0.8,3.9c0.9,1,2.4,1.3,3.7,0.8c1-0.3,1.5-1.6,2.6-1.5	c0.9,0.1,1.5,0.8,1.5,1.7c0,0.1,0,0.3-0.1,0.4c-0.5,1-1.3,1.7-2.2,2.1c-1.5,0.7-3.2,0.9-4.8,0.5c-1.6-0.3-3.1-1.2-3.9-2.6	c-0.9-1.6-1.2-3.5-1.1-5.3c-0.1-1.9,0.3-3.7,1.2-5.3C168.9,78.3,170.6,77.3,172.5,77.2 M183.1,78c1.3-0.6,2.7-0.8,4.1-0.8	c1.5-0.1,3,0.2,4.3,1c1.5,1.2,2.3,3,2.1,4.9c0,1.7,0,3.5,0,5.2c0,1.2,1.2,1.9,1,3.1c-0.1,1-1,1.6-2,1.5c-0.1,0-0.2,0-0.4-0.1	c-0.7-0.2-1-0.9-1.4-1.4c-1.1,1.2-2.7,1.8-4.3,1.7c-1.4,0.1-2.9-0.2-4.1-1c-0.9-0.7-1.5-1.7-1.6-2.9c-0.3-1.4,0.1-2.9,1.1-4	c1.2-1.1,2.7-1.6,4.3-1.6c1.3,0,2.6,0,3.9,0c0.2-1-0.1-2-0.8-2.7c-0.7-0.5-1.5-0.7-2.4-0.7c-1,0-2,0.2-2.9,0.6	c-0.6,0.3-1.3,0.3-1.9-0.1c-0.6-0.5-0.7-1.3-0.3-1.9c0.3-0.4,0.6-0.7,1.1-0.8 M185.1,86.7c-0.9,0.5-1.1,1.7-0.6,2.6	c0.1,0.2,0.3,0.4,0.5,0.6c0.8,0.4,1.8,0.5,2.6,0.3c0.9,0,1.8-0.5,2.3-1.3c0.3-0.8,0.3-1.7,0.2-2.6c-0.9,0-1.8,0-2.6,0	C186.7,86.2,185.9,86.4,185.1,86.7 M115.1,77.4c0.6-0.2,1.3,0,1.8,0.4c0.4,0.4,0.6,0.9,0.5,1.4v12c0,0.8-0.5,1.5-1.3,1.7	c-0.9,0.3-1.9-0.2-2.2-1.1c0-0.1-0.1-0.3-0.1-0.4c0-4.1,0-8.1,0-12.2C113.9,78.4,114.4,77.7,115.1,77.4 M161.5,77.5	c0.7-0.2,1.5,0,2,0.6c0.3,0.6,0.4,1.3,0.3,1.9c0,3.7,0,7.4,0,11.2c0,0.7-0.4,1.4-1,1.7c-0.7,0.3-1.5,0.1-2.1-0.4	c-0.3-0.4-0.5-1-0.4-1.5c0-3.9,0-7.9,0-11.8C160.3,78.4,160.8,77.7,161.5,77.5L161.5,77.5z" class="st2"/><rect width="190.8" height="39.6" x="19.2" y="62.4" class="st3"/></svg>